<svg xmlns="http://www.w3.org/2000/svg" viewBox="0 0 1366 1236" preserveAspectRatio="xMidYMid" width="1366" height="1236" xmlns:xlink="http://www.w3.org/1999/xlink" style="shape-rendering:auto;display:block;background-position-x:0%;background-position-y:0%;background-size:auto;background-origin:padding-box;background-clip:border-box;background:scroll rgb(28, 28, 28) none  repeat;width:1366px;height:1236px;;animation:none"><g><defs><filter height="279.20" width="32" y="-16" x="-16" filterUnits="userSpaceOnUse" id="f-33dmqc6o1zf"><feGaussianBlur result="blur1" stdDeviation="15"></feGaussianBlur>

    
<feMorphology result="dilate" in="SourceGraphic" radius="3.75" operator="dilate"></feMorphology>

    
<feComponentTransfer result="dark" in="dilate"><feFuncR slope="0.33" type="linear"></feFuncR>

    
<feFuncG slope="0.33" type="linear"></feFuncG>

    
<feFuncB slope="0.33" type="linear"></feFuncB></feComponentTransfer>

    
<feGaussianBlur result="blur2" in="dark" stdDeviation="7.50"></feGaussianBlur>

    
<feMerge><feMergeNode in="blur1"></feMergeNode>

      
<feMergeNode in="blur2"></feMergeNode>

      
<feMergeNode in="SourceGraphic"></feMergeNode></feMerge></filter></defs>
<path stroke-width="1" stroke="#3a454a" d="M263.89 0L263.89 1236" style="stroke:rgb(58, 69, 74);;animation:none"></path>


<path filter="url(#f-33dmqc6o1zf)" fill="#fac090" d="M0 0L-1 247.20 A1 1 0 0 0 1 247.20 Z" transform="matrix(1,0,0,1,263.8900146484375,191.77120971679688)" style="fill:rgb(250, 192, 144);transform:matrix(1, 0, 0, 1, 263.89, 191.771);;animation:none"></path>
<path stroke-width="1" stroke="#3a454a" d="M357.02 0L357.02 1236" style="stroke:rgb(58, 69, 74);;animation:none"></path>


<path filter="url(#f-33dmqc6o1zf)" fill="#dae4bf" d="M0 0L-1 247.20 A1 1 0 0 0 1 247.20 Z" transform="matrix(1,0,0,1,357.0199890136719,688.2003784179688)" style="fill:rgb(218, 228, 191);transform:matrix(1, 0, 0, 1, 357.02, 688.2);;animation:none"></path>
<path stroke-width="1" stroke="#3a454a" d="M450.16 0L450.16 1236" style="stroke:rgb(58, 69, 74);;animation:none"></path>


<path filter="url(#f-33dmqc6o1zf)" fill="#c0f6d2" d="M0 0L-1 247.20 A1 1 0 0 0 1 247.20 Z" transform="matrix(1,0,0,1,450.1600036621094,741.438720703125)" style="fill:rgb(192, 246, 210);transform:matrix(1, 0, 0, 1, 450.16, 741.439);;animation:none"></path>
<path stroke-width="1" stroke="#3a454a" d="M543.30 0L543.30 1236" style="stroke:rgb(58, 69, 74);;animation:none"></path>


<path filter="url(#f-33dmqc6o1zf)" fill="#ffffcb" d="M0 0L-1 247.20 A1 1 0 0 0 1 247.20 Z" transform="matrix(1,0,0,1,543.2999877929688,247.7864990234375)" style="fill:rgb(255, 255, 203);transform:matrix(1, 0, 0, 1, 543.3, 247.786);;animation:none"></path>
<path stroke-width="1" stroke="#3a454a" d="M636.43 0L636.43 1236" style="stroke:rgb(58, 69, 74);;animation:none"></path>


<path filter="url(#f-33dmqc6o1zf)" fill="#ff7c81" d="M0 0L-1 247.20 A1 1 0 0 0 1 247.20 Z" transform="matrix(1,0,0,1,636.4299926757812,-131.16497802734375)" style="fill:rgb(255, 124, 129);transform:matrix(1, 0, 0, 1, 636.43, -131.165);;animation:none"></path>
<path stroke-width="1" stroke="#3a454a" d="M729.57 0L729.57 1236" style="stroke:rgb(58, 69, 74);;animation:none"></path>


<path filter="url(#f-33dmqc6o1zf)" fill="#dae4bf" d="M0 0L-1 247.20 A1 1 0 0 0 1 247.20 Z" transform="matrix(1,0,0,1,729.5700073242188,73.84158325195312)" style="fill:rgb(218, 228, 191);transform:matrix(1, 0, 0, 1, 729.57, 73.8416);;animation:none"></path>
<path stroke-width="1" stroke="#3a454a" d="M822.70 0L822.70 1236" style="stroke:rgb(58, 69, 74);;animation:none"></path>


<path filter="url(#f-33dmqc6o1zf)" fill="#dae4bf" d="M0 0L-1 247.20 A1 1 0 0 0 1 247.20 Z" transform="matrix(1,0,0,1,822.7000122070312,803.5619506835938)" style="fill:rgb(218, 228, 191);transform:matrix(1, 0, 0, 1, 822.7, 803.562);;animation:none"></path>
<path stroke-width="1" stroke="#3a454a" d="M915.84 0L915.84 1236" style="stroke:rgb(58, 69, 74);;animation:none"></path>


<path filter="url(#f-33dmqc6o1zf)" fill="#c0f6d2" d="M0 0L-1 247.20 A1 1 0 0 0 1 247.20 Z" transform="matrix(1,0,0,1,915.8400268554688,-3.130584716796875)" style="fill:rgb(192, 246, 210);transform:matrix(1, 0, 0, 1, 915.84, -3.13058);;animation:none"></path>
<path stroke-width="1" stroke="#3a454a" d="M1008.98 0L1008.98 1236" style="stroke:rgb(58, 69, 74);;animation:none"></path>


<path filter="url(#f-33dmqc6o1zf)" fill="#fac090" d="M0 0L-1 247.20 A1 1 0 0 0 1 247.20 Z" transform="matrix(1,0,0,1,1008.97998046875,-21.61602783203125)" style="fill:rgb(250, 192, 144);transform:matrix(1, 0, 0, 1, 1008.98, -21.616);;animation:none"></path>
<path stroke-width="1" stroke="#3a454a" d="M1102.11 0L1102.11 1236" style="stroke:rgb(58, 69, 74);;animation:none"></path>


<path filter="url(#f-33dmqc6o1zf)" fill="#dae4bf" d="M0 0L-1 247.20 A1 1 0 0 0 1 247.20 Z" transform="matrix(1,0,0,1,1102.1099853515625,-176.91378784179688)" style="fill:rgb(218, 228, 191);transform:matrix(1, 0, 0, 1, 1102.11, -176.914);;animation:none"></path>
<g></g></g><!-- [ldio] generated by https://loading.io --></svg>